<svg xmlns="http://www.w3.org/2000/svg" viewBox="0 0 511 511"><defs/><path d="M475 100H121a7 7 0 100 15h354c12 0 21 10 21 21v160c0 12-9 21-21 21h-18v-49c0-4-3-7-7-7H61c-4 0-7 3-7 7v49H36c-12 0-21-9-21-21V136c0-11 9-21 21-21h55a7 7 0 100-15H36c-20 0-36 17-36 36v160c0 20 16 36 36 36h78a7 7 0 100-15H69v-13h298a7 7 0 100-15H69v-13h373v13h-45a7 7 0 100 15h45v13H144a8 8 0 000 15h331c20 0 36-16 36-36V136c0-19-16-36-36-36z"/><path d="M450 161a7 7 0 100-15h-23a7 7 0 100 15h23zM393 161a7 7 0 100-15H251a7 7 0 100 15h142zM141 352c-4 0-7 3-7 8 0 0-1 22-21 37a7 7 0 108 12c27-19 28-48 28-49 0-5-4-8-8-8zM195 352c-4 0-8 3-8 8v43a7 7 0 1015 0v-43c0-5-3-8-7-8zM258 352c-5 0-8 3-8 8v43a7 7 0 1015 0v-43c0-5-3-8-7-8zM398 397a49 49 0 01-21-37 7 7 0 00-15 0c0 1 1 30 28 49a7 7 0 0010-2c3-3 2-8-2-10zM316 352c-4 0-7 3-7 8v43a7 7 0 1015 0v-43c0-5-4-8-8-8z"/></svg>