<svg xmlns="http://www.w3.org/2000/svg" viewBox="0 0 512 512"><defs/><path d="M220 338c-3-3-8-3-11 0l-53 53a8 8 0 0011 10l53-53c3-3 3-7 0-10zM177 333c-3-3-7-3-10 0l-35 34a8 8 0 1011 11l34-35c3-3 3-8 0-10zM415 105a22 22 0 10-21 31c15 0 26-16 21-31zm-16 14c-4 4-12 1-12-6a7 7 0 017-7c6 0 10 8 5 13z"/><path d="M511 82a37 37 0 00-40-26 80 80 0 00-26-24l6-22c2-8-9-10-15-10-15 0-28 9-34 22-9 0-18 2-26 6L356 7c-4-3-8-2-11 1a37 37 0 00-5 46l-14 14-15-15c-4-4-9-3-12 0a37 37 0 00-4 46l-14 14-16-15c-3-3-8-3-11 0a37 37 0 00-4 47l-14 13-16-15c-3-3-8-3-11 0a37 37 0 00-5 47l-11 11c-12-9-27-14-42-13l-9-43c-7-35-41-58-76-51-34 7-58 41-51 76l22 110-13 13a35 35 0 000 50l8 8-27 58c-10 22-2 49 14 65l20 20c24 24 64 24 87 0l191-190 16 15c3 3 8 3 11 0 12-13 14-32 4-47l14-14 16 16 5 2 6-3c12-12 14-32 5-46l13-14 16 16c3 3 8 2 11-1 12-12 14-32 5-46l14-14 15 16c3 3 8 2 11-1 14-14 15-37 1-52 4-10 6-22 5-33l21-6c4-1 6-6 5-10zm-77-67l-3 11-12-3c4-5 9-7 15-8zm-83 9l11 11a159 159 0 00-11 8c-3-6-3-13 0-19zm-45 45l9 10-9 9a22 22 0 010-19zm-45 45l9 10-9 10a22 22 0 010-20zm-45 46l9 9-10 10c-2-6-2-13 1-19zm-186 7c-5-27 12-53 39-59 26-5 53 13 58 40l28 140c1 6-3 13-9 14-7 1-13-3-14-9l-28-141c-3-14-16-23-30-20s-23 16-21 30l17 85-20 20-20-100zm71 49l-18 18-15-75c-1-6 3-11 8-12 6-2 12 2 13 8l12 61zm15 268a47 47 0 01-66 0l-20-20c-12-12-18-33-11-49l24-53 17 17-21 44c-3 8 0 19 6 25l20 20c10 9 26 10 35 0l25-24 15 15-24 25zm-45-94l43 43-24 24c-4 4-10 4-14 0l-20-19-3-9 18-39zm80 59L35 333c-8-8-8-22 0-30l70-70 12 63c3 14 17 24 31 21 15-3 25-17 22-32l-17-82c13 0 26 5 35 14l97 97-134 135zm186-147l-9-9 9-10c3 6 3 13 0 19zm45-45l-9-9 10-10c2 6 2 13-1 19zm45-45l-9-9 10-10a22 22 0 01-1 19zm24-64L296 303l-13-13 19-19a8 8 0 00-10-10l-20 19-45-45L383 79a32 32 0 0145 45L313 240a8 8 0 0010 10l115-115a46 46 0 000-66 47 47 0 00-66 0L217 224l-13-13L359 56h1c19-19 49-24 73-13a65 65 0 0118 105zm22 19l-10-10 1-1 8-10c4 7 4 14 1 21zm10-84a79 79 0 00-4-12c6 1 11 4 14 9l-10 3z"/></svg>