<svg xmlns="http://www.w3.org/2000/svg" viewBox="0 0 512 512"><defs/><path d="M453 274c-5 0-8 3-8 8v214H213a8 8 0 100 16h240c4 0 8-4 8-8V282c0-5-4-8-8-8zM509 190L261 2c-3-3-7-3-10 0l-98 74V50h9c4 0 8-3 8-8V8c0-4-4-8-8-8H42c-4 0-8 4-8 8v34c0 5 4 8 8 8h9v103L3 190a8 8 0 005 14h43v300c0 4 4 8 8 8h103a8 8 0 100-16H67V196c0-4-3-8-8-8H32L256 18l224 170h-27c-5 0-8 4-8 8v43a8 8 0 1016 0v-35h43a8 8 0 005-14zM50 34V16h104v18H50zm87 54l-70 53V50h70v38z"/><path d="M427 407l-73-86-5-3-24-2h-1l-15-18 36-36 6 6c3 3 8 3 11 0l25-24 1-1 18-31c2-3 1-7-1-9l-12-13c-3-2-7-3-10-1l-30 18-2 2-24 24c-3 3-3 8 0 11l6 7-35 35-38-45 15-12 68-24c5-2 7-9 3-13l-25-30a72 72 0 00-102-8l-75 64-1-1a24 24 0 00-34-3l-15 12c-10 9-11 24-3 34l63 74c8 10 23 11 33 2l15-12c5-5 8-11 9-18 0-6-3-12-7-17l18-15 41 47-16 15-6-6-6-2h-24l-6 2-79 79c-9 10-9 25 0 34l26 26c9 9 24 9 34 0l79-79c2-2 2-4 2-6v-24c0-2 0-4-2-6l-6-6 14-15 16 20-1 17 2 6 73 85c8 10 24 12 33 3l28-23c10-9 11-24 3-34zm-65-186l24-15 3 3-15 24-17 18-13-13 18-17zM174 458c-3 3-8 3-11 0l-26-26c-3-3-3-8 0-11l68-68 37 37-68 68zm77-81l-33-33h14l10 9 9 10v14zm19-224c15 1 29 8 39 20l17 20-53 19-41-48c11-8 25-12 38-11zm-75 153l-3 6-15 12c-3 3-8 2-11-1l-63-73c-2-3-2-9 1-11l15-13c3-3 9-2 11 1l63 73 2 6zm-1-29l-40-47 66-56 40 47-66 56zm40-14l14-12 63 74-14 12-63-74zm180 165l-28 24c-3 3-8 2-11-1l-71-83 2-17 21-18 17 1 71 83c3 3 2 9-1 11z"/></svg>