<svg xmlns="http://www.w3.org/2000/svg" viewBox="0 0 512 512"><defs/><path d="M64 416a32 32 0 100 64 32 32 0 000-64zm0 48a16 16 0 110-32 16 16 0 010 32z"/><path d="M505 150l-72-72c-9-9-24-10-33-1l-10-11c-3-2-7-3-10-1l-13 8 8-13c2-3 1-7-1-10L326 2c-3-3-9-3-12 0L200 117l-2-3c-3-3-9-3-12 0l-32 32-19 20a40 40 0 00-10 38l22 89c2 10-1 19-9 25L25 402a61 61 0 1086 85l82-114c5-7 15-11 24-9l85 17c13 2 26-2 36-11l20-20 32-32c3-3 3-9 0-12l-3-2 29-29v61a32 32 0 0032 32c18 0 32-14 32-32v-41a24 24 0 0032-23V167c0-7-2-13-7-17zM326 358c-5 6-13 8-21 7l-85-17c-15-3-31 3-40 16L97 477a45 45 0 01-81-26c0-14 7-28 18-36l113-84c14-9 20-26 16-42l-23-89c-2-8 1-17 6-23l14-14 181 181zm26-25L171 152l21-21 181 181zm24-40L211 128 320 19l38 38-21 35a8 8 0 0011 11l35-21 6 6-30 30c-5 4-7 10-7 17v105a24 24 0 0024 24c13 0 24-11 24-24v-8a8 8 0 018-8c4 0 8 4 8 8v21zm120-21a8 8 0 01-16 0 8 8 0 00-16 0v64a16 16 0 01-32 0V232a24 24 0 00-48 0v8a8 8 0 01-16 0V135l2-6 40-40c3-3 9-3 12 0l72 72 2 6zM448 384a32 32 0 100 64 32 32 0 000-64zm0 48a16 16 0 110-32 16 16 0 010 32z"/></svg>