<svg xmlns="http://www.w3.org/2000/svg" viewBox="0 0 512 512"><defs/><path d="M490 460h-5V285a7 7 0 10-15 0v175h-25V47c0-4-3-7-6-7h-1v-1H74v1h-1-2l-1 1h-1v1h-1v1h-1v1a7 7 0 000 2v414H42V285a7 7 0 10-15 0v175h-5c-9 0-16 7-16 16v20c0 9 7 16 16 16h468c9 0 16-7 16-16v-20c0-9-7-16-16-16zM431 58v402h-10l-92-34V106l102-48zm-25-4l-84 40c-4 2-7 6-7 11v322c0 5 3 10 9 12l55 21H133l55-21c6-2 9-7 9-12V105c0-5-3-9-7-11l-84-40h300zM81 58l102 48v320l-92 34H81V58zm409 439H22l-2-1v-20l2-2h468l2 2v20l-2 1z"/><path d="M466 0H46C36 0 27 8 27 19v231a7 7 0 1015 0V19c0-3 2-4 4-4h420c2 0 4 1 4 4v232a7 7 0 1015 0V19c0-11-9-19-19-19z"/><path d="M407 93l-4 1-51 25c-3 2-4 5-4 8v122c0 5 4 9 8 9h51c5 0 9-4 9-9V102c0-5-4-9-9-9zm-5 150h-40V131l40-20v132zM407 268l-51 1c-4 0-8 4-8 8v129c0 3 2 6 5 8l51 20h3c5 0 9-4 9-8V277c0-5-4-9-9-9zm-5 149l-40-16V283h40v134zM156 269l-51-1c-5 0-9 4-9 9v149c0 4 4 8 9 8h3l51-20c3-2 5-5 5-8V277c0-4-4-8-8-8zm-6 132l-40 16V283h40v118zM160 119l-51-25-4-1c-5 0-9 4-9 9v147c0 5 4 9 9 9h51c4 0 8-4 8-9V127c0-3-1-6-4-8zm-10 124h-40V111l40 20v112z"/></svg>